<svg width="112" height="22" viewBox="0 0 112 22" fill="none" xmlns="http://www.w3.org/2000/svg">
<path d="M9.70724 4.21267C10.0284 3.22436 11.4266 3.22436 11.7477 4.21267L12.895 7.74387C13.0387 8.18586 13.4505 8.48511 13.9153 8.48511H17.6282C18.6674 8.48511 19.0994 9.81488 18.2587 10.4257L15.2549 12.6081C14.8789 12.8813 14.7216 13.3654 14.8652 13.8074L16.0126 17.3386C16.3337 18.327 15.2025 19.1488 14.3618 18.538L11.358 16.3556C10.982 16.0824 10.4729 16.0824 10.0969 16.3556L7.09311 18.538C6.2524 19.1488 5.12123 18.327 5.44236 17.3386L6.58971 13.8074C6.73332 13.3654 6.576 12.8813 6.20002 12.6081L3.1962 10.4257C2.35549 9.81488 2.78756 8.48511 3.82674 8.48511H7.53966C8.00439 8.48511 8.41627 8.18586 8.55988 7.74387L9.70724 4.21267Z" fill="url(#paint0_linear_179_4096)"/>
<path d="M32.1604 4.21267C32.4815 3.22436 33.8797 3.22436 34.2008 4.21267L35.3482 7.74387C35.4918 8.18586 35.9037 8.48511 36.3684 8.48511H40.0813C41.1205 8.48511 41.5526 9.81488 40.7118 10.4257L37.708 12.6081C37.3321 12.8813 37.1747 13.3654 37.3183 13.8074L38.4657 17.3386C38.7868 18.327 37.6557 19.1488 36.8149 18.538L33.8111 16.3556C33.4351 16.0824 32.926 16.0824 32.5501 16.3556L29.5462 18.538C28.7055 19.1488 27.5744 18.327 27.8955 17.3386L29.0428 13.8074C29.1864 13.3654 29.0291 12.8813 28.6531 12.6081L25.6493 10.4257C24.8086 9.81488 25.2407 8.48511 26.2799 8.48511H29.9928C30.4575 8.48511 30.8694 8.18586 31.013 7.74387L32.1604 4.21267Z" fill="url(#paint1_linear_179_4096)"/>
<path d="M54.6154 4.21267C54.9366 3.22436 56.3348 3.22436 56.6559 4.21267L57.8032 7.74387C57.9469 8.18586 58.3587 8.48511 58.8235 8.48511H62.5364C63.5756 8.48511 64.0076 9.81488 63.1669 10.4257L60.1631 12.6081C59.7871 12.8813 59.6298 13.3654 59.7734 13.8074L60.9208 17.3386C61.2419 18.327 60.1107 19.1488 59.27 18.538L56.2662 16.3556C55.8902 16.0824 55.3811 16.0824 55.0051 16.3556L52.0013 18.538C51.1606 19.1488 50.0294 18.327 50.3506 17.3386L51.4979 13.8074C51.6415 13.3654 51.4842 12.8813 51.1082 12.6081L48.1044 10.4257C47.2637 9.81488 47.6958 8.48511 48.7349 8.48511H52.4479C52.9126 8.48511 53.3245 8.18586 53.4681 7.74387L54.6154 4.21267Z" fill="url(#paint2_linear_179_4096)"/>
<path d="M77.0705 4.21267C77.3916 3.22436 78.7898 3.22436 79.111 4.21267L80.2583 7.74387C80.4019 8.18586 80.8138 8.48511 81.2786 8.48511H84.9915C86.0306 8.48511 86.4627 9.81488 85.622 10.4257L82.6182 12.6081C82.2422 12.8813 82.0849 13.3654 82.2285 13.8074L83.3759 17.3386C83.697 18.327 82.5658 19.1488 81.7251 18.538L78.7213 16.3556C78.3453 16.0824 77.8362 16.0824 77.4602 16.3556L74.4564 18.538C73.6157 19.1488 72.4845 18.327 72.8056 17.3386L73.953 13.8074C74.0966 13.3654 73.9393 12.8813 73.5633 12.6081L70.5595 10.4257C69.7188 9.81488 70.1508 8.48511 71.19 8.48511H74.9029C75.3677 8.48511 75.7796 8.18586 75.9232 7.74387L77.0705 4.21267Z" fill="url(#paint3_linear_179_4096)"/>
<path d="M99.5256 4.21267C99.8467 3.22436 101.245 3.22436 101.566 4.21267L102.713 7.74387C102.857 8.18586 103.269 8.48511 103.734 8.48511H107.447C108.486 8.48511 108.918 9.81488 108.077 10.4257L105.073 12.6081C104.697 12.8813 104.54 13.3654 104.684 13.8074L105.831 17.3386C106.152 18.327 105.021 19.1488 104.18 18.538L101.176 16.3556C100.8 16.0824 100.291 16.0824 99.9153 16.3556L96.9115 18.538C96.0708 19.1488 94.9396 18.327 95.2607 17.3386L96.4081 13.8074C96.5517 13.3654 96.3944 12.8813 96.0184 12.6081L93.0146 10.4257C92.1739 9.81488 92.6059 8.48511 93.6451 8.48511H97.358C97.8228 8.48511 98.2346 8.18586 98.3782 7.74387L99.5256 4.21267Z" fill="url(#paint4_linear_179_4096)"/>
<defs>
<linearGradient id="paint0_linear_179_4096" x1="2.75195" y1="3.47144" x2="20.604" y2="6.16962" gradientUnits="userSpaceOnUse">
<stop stop-color="#81E7EB"/>
<stop offset="1" stop-color="#010F00"/>
</linearGradient>
<linearGradient id="paint1_linear_179_4096" x1="25.2051" y1="3.47144" x2="43.0572" y2="6.16962" gradientUnits="userSpaceOnUse">
<stop stop-color="#81E7EB"/>
<stop offset="1" stop-color="#010F00"/>
</linearGradient>
<linearGradient id="paint2_linear_179_4096" x1="47.6602" y1="3.47144" x2="65.5122" y2="6.16962" gradientUnits="userSpaceOnUse">
<stop stop-color="#81E7EB"/>
<stop offset="1" stop-color="#010F00"/>
</linearGradient>
<linearGradient id="paint3_linear_179_4096" x1="70.1152" y1="3.47144" x2="87.9673" y2="6.16962" gradientUnits="userSpaceOnUse">
<stop stop-color="#81E7EB"/>
<stop offset="1" stop-color="#010F00"/>
</linearGradient>
<linearGradient id="paint4_linear_179_4096" x1="92.5703" y1="3.47144" x2="110.422" y2="6.16962" gradientUnits="userSpaceOnUse">
<stop stop-color="#81E7EB"/>
<stop offset="1" stop-color="#010F00"/>
</linearGradient>
</defs>
</svg>
